<?xml version="1.0" encoding="utf-8"?><svg xmlns="http://www.w3.org/2000/svg" xmlns:xlink="http://www.w3.org/1999/xlink" width="1536" height="722" preserveAspectRatio="xMidYMid" viewBox="0 0 1536 722" style="z-index:1;margin-right:-2px;display:block;background-repeat-y:initial;background-repeat-x:initial;background-color:rgb(255, 255, 255);animation-play-state:paused" ><g transform="translate(768,361) scale(1,1) translate(-768,-361)" style="transform:matrix(1, 0, 0, 1, 0, 0);animation-play-state:paused" ><defs style="animation-play-state:paused" ><linearGradient id="ldbk-photon-ebhymikukg-lg" x1="743" x2="1536" y1="0" y2="0" gradientUnits="userSpaceOnUse" style="animation-play-state:paused" ><stop stop-color="#1d3f72" offset="0" style="animation-play-state:paused" ></stop>

    
<stop stop-color="#34ffef" offset="1" style="animation-play-state:paused" ></stop></linearGradient>

  
<mask id="ldbk-photon-ebhymikukg-mask" style="animation-play-state:paused" ><g style="animation-play-state:paused" ><path d="M1836 -0.5 L743.6291403854569 -0.5 A15.5 15.5 0 0 1 743.6291403854569 31.5 L1836 31.5" fill="#fff" transform="matrix(1,0,0,1,25.281509399414062,0)" style="transform:matrix(1, 0, 0, 1, 25.2815, 0);animation-play-state:paused" ></path>
<path d="M1587.0807604054878 -0.5 L1607.1615208109756 -0.5 A15.5 15.5 0 0 1 1607.1615208109756 31.5 L1587.0807604054878 31.5 A15.5 15.5 0 0 1 1587.0807604054878 -0.5" fill="#000" transform="matrix(1,0,0,1,0,0)" opacity="1" style="transform:matrix(1, 0, 0, 1, 0, 0);animation-play-state:paused" ></path>
<path d="M1836 30.5 L699.5585732359826 30.5 A15.5 15.5 0 0 0 699.5585732359826 62.5 L1836 62.5" fill="#fff" transform="matrix(1,0,0,1,-44.49089813232422,0)" style="transform:matrix(1, 0, 0, 1, -44.4909, 0);animation-play-state:paused" ></path>
<path d="M806.2032938114611 30.5 L839.6757510566106 30.5 A15.5 15.5 0 0 1 839.6757510566106 62.5 L806.2032938114611 62.5 A15.5 15.5 0 0 1 806.2032938114611 30.5" fill="#fff" transform="matrix(1,0,0,1,0,0)" opacity="1" style="transform:matrix(1, 0, 0, 1, 0, 0);animation-play-state:paused" ></path>
<path d="M1836 61.5 L731.4631479020693 61.5 A15.5 15.5 0 0 1 731.4631479020693 93.5 L1836 93.5" fill="#fff" transform="matrix(1,0,0,1,24.00253677368164,0)" style="transform:matrix(1, 0, 0, 1, 24.0025, 0);animation-play-state:paused" ></path>
<path d="M1590.467059968434 61.5 L1613.9341199368678 61.5 A15.5 15.5 0 0 1 1613.9341199368678 93.5 L1590.467059968434 93.5 A15.5 15.5 0 0 1 1590.467059968434 61.5" fill="#000" transform="matrix(1,0,0,1,-1111.30859375,0)" opacity="0.357143" style="transform:matrix(1, 0, 0, 1, -1111.31, 0);opacity:0.357143;animation-play-state:paused" ></path>
<path d="M1836 92.5 L687.612193750169 92.5 A15.5 15.5 0 0 0 687.612193750169 124.5 L1836 124.5" fill="#fff" transform="matrix(1,0,0,1,-16.219423294067383,0)" style="transform:matrix(1, 0, 0, 1, -16.2194, 0);animation-play-state:paused" ></path>
<path d="M832.7000049495181 92.5 L860.4251221349082 92.5 A15.5 15.5 0 0 1 860.4251221349082 124.5 L832.7000049495181 124.5 A15.5 15.5 0 0 1 832.7000049495181 92.5" fill="#fff" transform="matrix(1,0,0,1,0,0)" opacity="0.357143" style="transform:matrix(1, 0, 0, 1, 0, 0);opacity:0.357143;animation-play-state:paused" ></path>
<path d="M1836 123.5 L742.1228418812318 123.5 A15.5 15.5 0 0 1 742.1228418812318 155.5 L1836 155.5" fill="#fff" transform="matrix(1,0,0,1,46.02382278442383,0)" style="transform:matrix(1, 0, 0, 1, 46.0238, 0);animation-play-state:paused" ></path>
<path d="M1606.0202902395934 123.5 L1645.0405804791867 123.5 A15.5 15.5 0 0 1 1645.0405804791867 155.5 L1606.0202902395934 155.5 A15.5 15.5 0 0 1 1606.0202902395934 123.5" fill="#000" transform="matrix(1,0,0,1,-595.5191040039062,0)" opacity="0.714285" style="transform:matrix(1, 0, 0, 1, -595.519, 0);opacity:0.714285;animation-play-state:paused" ></path>
<path d="M1836 154.5 L657.3635228397375 154.5 A15.5 15.5 0 0 0 657.3635228397375 186.5 L1836 186.5" fill="#fff" transform="matrix(1,0,0,1,-18.913082122802734,0)" style="transform:matrix(1, 0, 0, 1, -18.9131, 0);animation-play-state:paused" ></path>
<path d="M806.7752872003225 154.5 L831.2725786808247 154.5 A15.5 15.5 0 0 1 831.2725786808247 186.5 L806.7752872003225 186.5 A15.5 15.5 0 0 1 806.7752872003225 154.5" fill="#fff" transform="matrix(1,0,0,1,0,0)" opacity="0.535714" style="transform:matrix(1, 0, 0, 1, 0, 0);opacity:0.535714;animation-play-state:paused" ></path>
<path d="M1836 185.5 L750.3879827004805 185.5 A15.5 15.5 0 0 1 750.3879827004805 217.5 L1836 217.5" fill="#fff" transform="matrix(1,0,0,1,21.634567260742188,0)" style="transform:matrix(1, 0, 0, 1, 21.6346, 0);animation-play-state:paused" ></path>
<path d="M1602.1380606201622 185.5 L1637.2761212403243 185.5 A15.5 15.5 0 0 1 1637.2761212403243 217.5 L1602.1380606201622 217.5 A15.5 15.5 0 0 1 1602.1380606201622 185.5" fill="#000" transform="matrix(1,0,0,1,-848.434814453125,0)" opacity="0.714286" style="transform:matrix(1, 0, 0, 1, -848.435, 0);opacity:0.714286;animation-play-state:paused" ></path>
<path d="M1836 216.5 L719.2042211204607 216.5 A15.5 15.5 0 0 0 719.2042211204607 248.5 L1836 248.5" fill="#fff" transform="matrix(1,0,0,1,-14.443550109863281,0)" style="transform:matrix(1, 0, 0, 1, -14.4436, 0);animation-play-state:paused" ></path>
<path d="M772.7142338363383 216.5 L807.1463051713873 216.5 A15.5 15.5 0 0 1 807.1463051713873 248.5 L772.7142338363383 248.5 A15.5 15.5 0 0 1 772.7142338363383 216.5" fill="#fff" transform="matrix(1,0,0,1,0,0)" opacity="0.357143" style="transform:matrix(1, 0, 0, 1, 0, 0);opacity:0.357143;animation-play-state:paused" ></path>
<path d="M1836 247.5 L750.0915036349866 247.5 A15.5 15.5 0 0 1 750.0915036349866 279.5 L1836 279.5" fill="#fff" transform="matrix(1,0,0,1,38.27742385864258,0)" style="transform:matrix(1, 0, 0, 1, 38.2774, 0);animation-play-state:paused" ></path>
<path d="M1588.8966482493838 247.5 L1610.7932964987676 247.5 A15.5 15.5 0 0 1 1610.7932964987676 279.5 L1588.8966482493838 279.5 A15.5 15.5 0 0 1 1588.8966482493838 247.5" fill="#000" transform="matrix(1,0,0,1,-0.0004149959422647953,0)" opacity="1" style="transform:matrix(1, 0, 0, 1, -0.000414996, 0);animation-play-state:paused" ></path>
<path d="M1836 278.5 L714.7949240949539 278.5 A15.5 15.5 0 0 0 714.7949240949539 310.5 L1836 310.5" fill="#fff" transform="matrix(1,0,0,1,-37.214988708496094,0)" style="transform:matrix(1, 0, 0, 1, -37.215, 0);animation-play-state:paused" ></path>
<path d="M793.5601274407751 278.5 L805.795054855876 278.5 A15.5 15.5 0 0 1 805.795054855876 310.5 L793.5601274407751 310.5 A15.5 15.5 0 0 1 793.5601274407751 278.5" fill="#fff" transform="matrix(1,0,0,1,0,0)" opacity="0.892857" style="transform:matrix(1, 0, 0, 1, 0, 0);opacity:0.892857;animation-play-state:paused" ></path>
<path d="M1836 309.5 L746.1176957021106 309.5 A15.5 15.5 0 0 1 746.1176957021106 341.5 L1836 341.5" fill="#fff" transform="matrix(1,0,0,1,21.9495792388916,0)" style="transform:matrix(1, 0, 0, 1, 21.9496, 0);animation-play-state:paused" ></path>
<path d="M1604.3169522227029 309.5 L1641.6339044454057 309.5 A15.5 15.5 0 0 1 1641.6339044454057 341.5 L1604.3169522227029 341.5 A15.5 15.5 0 0 1 1604.3169522227029 309.5" fill="#000" transform="matrix(1,0,0,1,-662.8701782226562,0)" opacity="0.714286" style="transform:matrix(1, 0, 0, 1, -662.87, 0);opacity:0.714286;animation-play-state:paused" ></path>
<path d="M1836 340.5 L713.7361791798465 340.5 A15.5 15.5 0 0 0 713.7361791798465 372.5 L1836 372.5" fill="#fff" transform="matrix(1,0,0,1,-5.229839324951172,0)" style="transform:matrix(1, 0, 0, 1, -5.22984, 0);animation-play-state:paused" ></path>
<path d="M793.9748903546548 340.5 L810.8898961633901 340.5 A15.5 15.5 0 0 1 810.8898961633901 372.5 L793.9748903546548 372.5 A15.5 15.5 0 0 1 793.9748903546548 340.5" fill="#fff" transform="matrix(1,0,0,1,0,0)" opacity="0.357143" style="transform:matrix(1, 0, 0, 1, 0, 0);opacity:0.357143;animation-play-state:paused" ></path>
<path d="M1836 371.5 L773.8629339657551 371.5 A15.5 15.5 0 0 1 773.8629339657551 403.5 L1836 403.5" fill="#fff" transform="matrix(1,0,0,1,5.6946350412978575e-11,0)" style="transform:matrix(1, 0, 0, 1, 5.69463e-11, 0);animation-play-state:paused" ></path>
<path d="M1578.1238782808434 371.5 L1589.2477565616869 371.5 A15.5 15.5 0 0 1 1589.2477565616869 403.5 L1578.1238782808434 403.5 A15.5 15.5 0 0 1 1578.1238782808434 371.5" fill="#000" transform="matrix(1,0,0,1,0,0)" opacity="1" style="transform:matrix(1, 0, 0, 1, 0, 0);animation-play-state:paused" ></path>
<path d="M1836 402.5 L743.4617570043127 402.5 A15.5 15.5 0 0 0 743.4617570043127 434.5 L1836 434.5" fill="#fff" transform="matrix(1,0,0,1,-15.606829643249512,0)" style="transform:matrix(1, 0, 0, 1, -15.6068, 0);animation-play-state:paused" ></path>
<path d="M834.7441044495826 402.5 L850.089408365852 402.5 A15.5 15.5 0 0 1 850.089408365852 434.5 L834.7441044495826 434.5 A15.5 15.5 0 0 1 834.7441044495826 402.5" fill="#fff" transform="matrix(1,0,0,1,0,0)" opacity="0.535714" style="transform:matrix(1, 0, 0, 1, 0, 0);opacity:0.535714;animation-play-state:paused" ></path>
<path d="M1836 433.5 L781.2171316884943 433.5 A15.5 15.5 0 0 1 781.2171316884943 465.5 L1836 465.5" fill="#fff" transform="matrix(1,0,0,1,0,0)" style="transform:matrix(1, 0, 0, 1, 0, 0);animation-play-state:paused" ></path>
<path d="M1600.8365340900623 433.5 L1634.6730681801246 433.5 A15.5 15.5 0 0 1 1634.6730681801246 465.5 L1600.8365340900623 465.5 A15.5 15.5 0 0 1 1600.8365340900623 433.5" fill="#000" transform="matrix(1,0,0,1,-303.35552978515625,0)" opacity="1" style="transform:matrix(1, 0, 0, 1, -303.356, 0);animation-play-state:paused" ></path>
<path d="M1836 464.5 L745.0823645198803 464.5 A15.5 15.5 0 0 0 745.0823645198803 496.5 L1836 496.5" fill="#fff" transform="matrix(1,0,0,1,-13.897273063659668,0)" style="transform:matrix(1, 0, 0, 1, -13.8973, 0);animation-play-state:paused" ></path>
<path d="M819.0046232863866 464.5 L833.8282918673189 464.5 A15.5 15.5 0 0 1 833.8282918673189 496.5 L819.0046232863866 496.5 A15.5 15.5 0 0 1 819.0046232863866 464.5" fill="#fff" transform="matrix(1,0,0,1,0,0)" opacity="0.535714" style="transform:matrix(1, 0, 0, 1, 0, 0);opacity:0.535714;animation-play-state:paused" ></path>
<path d="M1836 495.5 L792.8406905048292 495.5 A15.5 15.5 0 0 1 792.8406905048292 527.5 L1836 527.5" fill="#fff" transform="matrix(1,0,0,1,36.74528121948242,0)" style="transform:matrix(1, 0, 0, 1, 36.7453, 0);animation-play-state:paused" ></path>
<path d="M1590.8415074259556 495.5 L1614.6830148519111 495.5 A15.5 15.5 0 0 1 1614.6830148519111 527.5 L1590.8415074259556 527.5 A15.5 15.5 0 0 1 1590.8415074259556 495.5" fill="#000" transform="matrix(1,0,0,1,-0.000807645614258945,0)" opacity="1" style="transform:matrix(1, 0, 0, 1, -0.000807646, 0);animation-play-state:paused" ></path>
<path d="M1836 526.5 L753.6619229183233 526.5 A15.5 15.5 0 0 0 753.6619229183233 558.5 L1836 558.5" fill="#fff" transform="matrix(1,0,0,1,-20.446292877197266,0)" style="transform:matrix(1, 0, 0, 1, -20.4463, 0);animation-play-state:paused" ></path>
<path d="M848.2791211283696 526.5 L870.4728519943843 526.5 A15.5 15.5 0 0 1 870.4728519943843 558.5 L848.2791211283696 558.5 A15.5 15.5 0 0 1 848.2791211283696 526.5" fill="#fff" transform="matrix(1,0,0,1,0,0)" opacity="0.892856" style="transform:matrix(1, 0, 0, 1, 0, 0);opacity:0.892856;animation-play-state:paused" ></path>
<path d="M1836 557.5 L789.855521754086 557.5 A15.5 15.5 0 0 1 789.855521754086 589.5 L1836 589.5" fill="#fff" transform="matrix(1,0,0,1,0,0)" style="transform:matrix(1, 0, 0, 1, 0, 0);animation-play-state:paused" ></path>
<path d="M1601.477088970713 557.5 L1635.9541779414262 557.5 A15.5 15.5 0 0 1 1635.9541779414262 589.5 L1601.477088970713 589.5 A15.5 15.5 0 0 1 1601.477088970713 557.5" fill="#000" transform="matrix(1,0,0,1,-764.8192138671875,0)" opacity="0.714286" style="transform:matrix(1, 0, 0, 1, -764.819, 0);opacity:0.714286;animation-play-state:paused" ></path>
<path d="M1836 588.5 L750.4522859718295 588.5 A15.5 15.5 0 0 0 750.4522859718295 620.5 L1836 620.5" fill="#fff" transform="matrix(1,0,0,1,-15.35798454284668,0)" style="transform:matrix(1, 0, 0, 1, -15.358, 0);animation-play-state:paused" ></path>
<path d="M861.6466622794719 588.5 L893.8975746451588 588.5 A15.5 15.5 0 0 1 893.8975746451588 620.5 L861.6466622794719 620.5 A15.5 15.5 0 0 1 861.6466622794719 588.5" fill="#fff" transform="matrix(1,0,0,1,0,0)" opacity="0.892857" style="transform:matrix(1, 0, 0, 1, 0, 0);opacity:0.892857;animation-play-state:paused" ></path>
<path d="M1836 619.5 L756.5625007253477 619.5 A15.5 15.5 0 0 1 756.5625007253477 651.5 L1836 651.5" fill="#fff" transform="matrix(1,0,0,1,38.401519775390625,0)" style="transform:matrix(1, 0, 0, 1, 38.4015, 0);animation-play-state:paused" ></path>
<path d="M1591.6471323882067 619.5 L1616.2942647764135 619.5 A15.5 15.5 0 0 1 1616.2942647764135 651.5 L1591.6471323882067 651.5 A15.5 15.5 0 0 1 1591.6471323882067 619.5" fill="#000" transform="matrix(1,0,0,1,-780.3363647460938,0)" opacity="0.714285" style="transform:matrix(1, 0, 0, 1, -780.336, 0);opacity:0.714285;animation-play-state:paused" ></path>
<path d="M1836 650.5 L715.4616641384093 650.5 A15.5 15.5 0 0 0 715.4616641384093 682.5 L1836 682.5" fill="#fff" transform="matrix(1,0,0,1,-20.735280990600586,0)" style="transform:matrix(1, 0, 0, 1, -20.7353, 0);animation-play-state:paused" ></path>
<path d="M864.9486544529886 650.5 L899.4952845346502 650.5 A15.5 15.5 0 0 1 899.4952845346502 682.5 L864.9486544529886 682.5 A15.5 15.5 0 0 1 864.9486544529886 650.5" fill="#fff" transform="matrix(1,0,0,1,0,0)" opacity="0.17857" style="transform:matrix(1, 0, 0, 1, 0, 0);opacity:0.17857;animation-play-state:paused" ></path>
<path d="M1836 681.5 L779.1172534488351 681.5 A15.5 15.5 0 0 1 779.1172534488351 713.5 L1836 713.5" fill="#fff" transform="matrix(1,0,0,1,21.18093490600586,0)" style="transform:matrix(1, 0, 0, 1, 21.1809, 0);animation-play-state:paused" ></path>
<path d="M1605.9759470699007 681.5 L1644.9518941398014 681.5 A15.5 15.5 0 0 1 1644.9518941398014 713.5 L1605.9759470699007 713.5 A15.5 15.5 0 0 1 1605.9759470699007 681.5" fill="#000" transform="matrix(1,0,0,1,-327.843017578125,0)" opacity="1" style="transform:matrix(1, 0, 0, 1, -327.843, 0);animation-play-state:paused" ></path>
<path d="M1836 712.5 L752.0453565689901 712.5 A15.5 15.5 0 0 0 752.0453565689901 744.5 L1836 744.5" fill="#fff" transform="matrix(1,0,0,1,-32.08126449584961,0)" style="transform:matrix(1, 0, 0, 1, -32.0813, 0);animation-play-state:paused" ></path>
<path d="M823.1602344862273 712.5 L838.1118517138812 712.5 A15.5 15.5 0 0 1 838.1118517138812 744.5 L823.1602344862273 744.5 A15.5 15.5 0 0 1 823.1602344862273 712.5" fill="#fff" transform="matrix(1,0,0,1,0,0)" opacity="0.357143" style="transform:matrix(1, 0, 0, 1, 0, 0);opacity:0.357143;animation-play-state:paused" ></path></g></mask></defs>


<rect x="0" y="0" width="1536" height="722" fill="url(#ldbk-photon-ebhymikukg-lg)" mask="url(#ldbk-photon-ebhymikukg-mask)" style="animation-play-state:paused" ></rect></g></svg>